<?xml version="1.0" encoding="UTF-8"?>
<svg id="_Слой_1" data-name="Слой 1" xmlns="http://www.w3.org/2000/svg" xmlns:xlink="http://www.w3.org/1999/xlink" viewBox="0 0 58.53 58.53">
  <defs>
    <style>
      .cls-1 {
        fill: #fff;
      }

      .cls-1, .cls-2 {
        fill-rule: evenodd;
      }

      .cls-3, .cls-2 {
        fill: #378234;
      }

      .cls-4 {
        fill: none;
        stroke: #378234;
        stroke-miterlimit: 10;
        stroke-width: .25px;
      }

      .cls-5 {
        clip-path: url(#clippath);
      }
    </style>
    <clipPath id="clippath">
      <path class="cls-4" d="M22.82,9.16h12.9c1.28,0,2.33,1.05,2.33,2.33v8.99h8.99c1.28,0,2.33,1.05,2.33,2.33v12.9c0,1.28-1.05,2.33-2.33,2.33h-8.99v8.99c0,1.28-1.05,2.33-2.33,2.33h-12.9c-1.28,0-2.33-1.05-2.33-2.33v-8.99h-8.99c-1.28,0-2.33-1.05-2.33-2.33v-12.9c0-1.28,1.05-2.33,2.33-2.33h8.99v-8.99c0-1.28,1.05-2.33,2.33-2.33Z"/>
    </clipPath>
  </defs>
  <circle class="cls-3" cx="29.27" cy="29.27" r="29.27"/>
  <path class="cls-1" d="M22.82,9.16h12.9c1.28,0,2.33,1.05,2.33,2.33v8.99h8.99c1.28,0,2.33,1.05,2.33,2.33v12.9c0,1.28-1.05,2.33-2.33,2.33h-8.99v8.99c0,1.28-1.05,2.33-2.33,2.33h-12.9c-1.28,0-2.33-1.05-2.33-2.33v-8.99h-8.99c-1.28,0-2.33-1.05-2.33-2.33v-12.9c0-1.28,1.05-2.33,2.33-2.33h8.99v-8.99c0-1.28,1.05-2.33,2.33-2.33Z"/>
  <g>
    <g class="cls-5">
      <path id="_1" data-name=" 1" class="cls-3" d="M28.63,27.2c.67.5,1.45.46,2.22.28.37.27.76.41,1.37.33.47-.06.99-.17,1.42.08.43.25.73.68.87,1.15.29.98.21,2.05-.1,3.02-.29.92-.7,1.77-.59,2.76,0,.08.09.14.17.1.06-.03.11-.07.17-.1.05.54-.28,1.24.07,1.73.16.23.17.43.19.66-.04.26-.03.53-.01.8.06.76.08,1.54.37,2.25.04.1.09.2.14.29.12.47.31.92.45,1.35.38,1.2.46,2.45.57,3.69.04.52.41.94.21,1.43-.02.05-.05.1-.07.15-.03.05-.06.09-.09.13-.03.29-.53.34-.71.26-.07.03-.11.06-.15.1-.13.11-.25.22-.35.34-.19.24-.73,1.17-.35,1.41.13.08.38.04.52.02.27-.02.54-.01.81-.01.5,0,1.04.05,1.54,0,.39-.04.61-.19.74-.41.13-.4.13-1.14.09-1.52,0-.21,0-.42,0-.62,0-.83.02-1.25.02-2.08,0-.19,0-.39,0-.58.53.34,1.12.59,1.69.84.73.32,1.46.62,2.22.88.84.29,1.63.61,2.39,1.01.19.1.38.2.56.31.29.06.29.3.54.3-.74.49-1.48.25-2.29.26-.21,0-.43,0-.64,0-.17,0-.38,0-.6,0-.22,0-.45.03-.67.07-.72.15-1.21.64-.97,1.38.25.49.98.49,1.46.51.25,0,.5-.03.72-.05.22,0,.44-.01.67-.03,1.82.31,3.79-.67,5.28.52.32,0,.64-.02.97-.04.32-.02.64-.04.97-.03.83.03,1.66.16,2.49.07.37-.04.85-.03,1.19-.22.36-.2.2-.73-.07-1.25.36-.72.66-1.48.84-2.25.7.18,1.48.28,2.06-.05.19-.11.21-.27.24-.48.09-.49.29-.74.56-1.16.35-.54.6-1.16.87-1.74.23-.48.58-1,.65-1.53.05-.36-.36-.61-.2-1,.13-.31.47-.62.47-.97,0-.25-.08-.31-.23-.5-.28-.35.12-.97.19-1.33.09-.45,0-.76-.16-1.18-.21-.6-.02-1.4-.49-1.89-.27-.29-.38-.5-.52-.86-.06-.15-.19-.34-.34-.41-.64-.29-.9-.94-1.54-1.24-.41-.19-.57-.43-.8-.81-.1-.17-.26-.22-.44-.25-.57-.08-.77-.68-1.4-.67-.17,0-.5.01-.54.24-.1.56.77,1.15,1.1,1.49.93.94,1.16,2.45,1.42,3.69.19.88.47,1.78.5,2.69.02.85-.19,1.69-.57,2.46-.28.56-.67.95-1.17,1.28-.62-1.58-1.71-3.04-2.95-4.15-.79-.7-1.64-1.31-2.46-1.98-.48-.39-.92-.79-1.28-1.3-.29-.41-.53-.84-.84-1.24-.61-.8-1.34-1.47-2.18-2.03-.49-.33-.91-.71-1.32-1.09-.5-.77-.8-1.75-1.2-2.48-.31-.56-.77-.96-1.17-1.45-.02-.03-.05-.06-.08-.09-.02-.05-.03-.11-.05-.15-.31-.86-.72-1.77-1.37-2.42-.39-.38-.85-.73-1.11-1.23-.15-.28-.3-.57-.47-.84-.1-.15-.21-.32-.33-.47-.12-.65-.29-1.33-.67-1.82-.29-.37-.7-.57-1.03-.89-.33-.32-.62-.67-1.02-.91-.1-.06-.19.05-.16.13,0,.02-.01.04,0,.07.07.24.51,2.1.52,2.75-.68.13-1.46-.07-2.12.17-.61.23-.97.85-1.31,1.4-.13.06-.25.15-.36.29-.16.21-.25.46-.41.67-.28.37-.67.51-1.12.58-.75.1-2.52.02-2.62,1.11-.08.81.53,1.76,1.16,2.24h0Z"/>
      <path class="cls-2" d="M26.68,32.07c-.22.28-.12.21-.22.49-.08.23-.19.14-.31.46-.32.86-1.62.33-1.87,1.18-.1.32-.1,1.04-.01,1.37.27.98.69,1.35.38,2.47-.62,2.2-1.38,2.38-2.12,3.99-.83,1.81-.28,1.64,0,3.74.06.44,0,.95.44,1.09.39.12.84.18.83.7-.02.68-.42.6-.7.81.17.26.54.77.05,1.04-.23.12-1.04.17-1.34.18-1.31.04-1.24-.5-1.59-1.45-.27,0-.81.15-1.21.17-.34.02-1.02-.06-1.22.22.24.25.53.41.57.83.1.93-1.01.94-1.74.76-.61-.15-.44-.16-1.09-.07-.78.1-2.63-.23-3.75-.29-.77-.05-.41-.19-.88-.44-1.5-.81-.59-.76-1.49-1.2-.58-.29-1.11-.68-1.57-1.12-2.29-2.2-2.26-5.29-.99-8.01.74-1.58-1.46-3.14-.95-4.17.55-1.11,1.13-3.2.34-4.29-.86-1.19-2.92-.81-3.29.57-.1.39-.04.78.17,1.12.17.27.56.34.85.48.89.43.79,1.41,0,1.45-1.14.05-2.47-1.32-2.32-3.02.3-3.46,4.81-3.88,6.16-1.24.66,1.3.46,3.26,0,4.6-.91,2.6-.56,5.95-.06,8.34.14.66.45,1.32.82,1.89.18.28.93,1.31,1.22,1.35.06-.44,0-1.3.02-1.82.03-.56.08-1.12.15-1.68.36-2.78,1.14-5.77,3.78-7.23,1.01-.56,1.87-.58,2.98-.68,1.39-.12,1.56-.45,1.91-1.76.26-.96.43-1.83.98-2.69.73-1.15,1.56-1.43,1.83-1.8.43-.16,1.12-1.02,1.73-1.18l.18.25c.21-.19.34-.44.65-.43.1.48-.4.93-.27,1.4.38.24.62.14,1.14.54,1.25.97.91,1.44,1.28,2.04.3.49.6.42.56,1.09h0Z"/>
    </g>
    <path class="cls-4" d="M22.82,9.16h12.9c1.28,0,2.33,1.05,2.33,2.33v8.99h8.99c1.28,0,2.33,1.05,2.33,2.33v12.9c0,1.28-1.05,2.33-2.33,2.33h-8.99v8.99c0,1.28-1.05,2.33-2.33,2.33h-12.9c-1.28,0-2.33-1.05-2.33-2.33v-8.99h-8.99c-1.28,0-2.33-1.05-2.33-2.33v-12.9c0-1.28,1.05-2.33,2.33-2.33h8.99v-8.99c0-1.28,1.05-2.33,2.33-2.33Z"/>
  </g>
</svg>