<?xml version="1.0" encoding="UTF-8"?>
<svg id="_Слой_1" xmlns="http://www.w3.org/2000/svg" version="1.1" viewBox="0 0 180.4 35.5">
  <!-- Generator: Adobe Illustrator 29.0.1, SVG Export Plug-In . SVG Version: 2.1.0 Build 192)  -->
  <defs>
    <style>
      .st0 {
        fill: #378234;
      }

      .st1, .st2 {
        fill: #444a97;
      }

      .st2 {
        fill-rule: evenodd;
      }
    </style>
  </defs>
  <path class="st0" d="M32.9,3.3c0,.8-.2,1.6-.7,2.4-.5.7-1,1.3-1.8,1.8-.7.5-1.5.7-2.3.7s-.6-.1-.6-.3.2-.7.7-1.3c.4-.5.7-1,1-1.4,0,0,.1-.3.3-.5.3-.7.5-1.2.5-1.6s0-.4-.2-.4c-.4,0-1,.3-2,.9-1,.6-1.7,1.3-2.2,2.2-.5.8-.9,1.7-1,2.7-.1.5-.2,1-.2,1.7,0,.3,0,.6,0,1,0,1,.3,1.8.8,2.4.5.7,1,1,1.7,1s1.8-.4,3.2-1.1c.2-.1.5-.3.9-.6.6-.4,1-.6,1.1-.6.3,0,.5.2.5.5s0,.7-.3,1.1c-.2.4-.4.8-.6,1-1,.9-2.5,1.6-4.7,2.2-1,.3-1.8.4-2.4.4-1.3,0-2.4-.5-3.4-1.6-.4-.4-.8-1.1-1-2-.3-.9-.4-1.6-.4-2.2-.5.2-1.1.6-1.8,1.2-.5.5-.8.9-1,1.1-.6,1.1-1.5,2.1-2.5,2.8-.5.3-1.2.5-2,.5s-1.3-.3-1.3-1,0-.8.3-1.2c.2-.6.6-1.1,1.1-1.6-1.2,1.1-2.4,1.9-3.5,2.6-1.6.9-3.1,1.4-4.5,1.4h-.2c-.4,0-.6,0-.8,0-.2,0-.5-.1-.9-.3-.4-.2-.9-.4-1.2-.7s-.8-.8-1.1-1.5c0-.1,0-.4,0-.6s0-.7,0-1.1c0-.5.2-.9.4-1.2h0c.2-.3.4-.4.6-.4h0c0,0,.4.3.9.9.2.3.5.6.8.9.3.3.6.6,1,.9.4.2.7.4,1.1.4h0c.5,0,1-.2,1.4-.6s.6-.7,1-1.4c1.3-2.1,2-4.1,2.2-6.3,0-.3,0-.5,0-.8,0-.8,0-1.4-.3-2-.1-.4-.4-.6-.6-.7h0c-.2,0-.4.2-.6.5-.3.4-.7,1.2-1.3,2.3-.3.8-.5,1.5-.7,2.1-.1.6-.2,1.3-.3,2.1,0,.2,0,.4-.1.7-.2.4-.5.5-.9.5h0c-.4,0-.9-.2-1.3-.6-.2-.3-.5-.7-.7-1.4-.1-.3-.2-.8-.2-1.3s0-1.2.2-1.7c.2-.6.3-1,.3-1.2.2-.4.4-.9.6-1.3.6-.9,1.3-1.7,2.2-2.2.9-.5,1.8-.8,2.8-.8h.2c1.4,0,2.6.7,3.7,2,.7.9,1.2,1.8,1.3,2.8,0,.3,0,.7.1,1.1,0,.2,0,.3,0,.4,0,.5,0,1-.1,1.6.6-.2,1.5-1.1,2.6-2.6.7-1,1.1-1.6,1.2-1.7.3-.6.6-1.2.9-1.8-.2-.4-.5-.6-.8-.7-.1,0-.2-.2-.2-.2s0,0,0-.1c.3-.2.9-.4,1.7-.6.3,0,.6,0,.7,0,.6,0,1.1.1,1.5.4.5.3.7.9.7,1.7s-.2,1.6-.6,2.7c.6-1,1.4-1.9,2.6-2.8.9-.7,1.8-1.2,2.8-1.6.9-.4,1.8-.6,2.7-.6s1.5.2,2.1.7c.6.5.9,1.1.9,1.9h0ZM40.1,13.5l-.2.2c0,0-.3.2-.8.6-1,.8-1.7,1.3-1.9,1.5-.8.6-1.4,1-2,1.3-.4.2-.8.3-1,.3-.5,0-.8-.2-1.1-.6-.2-.4-.3-.8-.3-1.3,0-2,.5-4.4,1.6-7.1.5-1.4,1.2-2.2,2-2.5.3-.1.6-.2,1-.2.5,0,.9.2,1.2.5s.5.7.5,1.2,0,.7-.2,1.1c0,0-.2.5-.6,1.4v.4c-.8,1.7-1.2,2.5-1.2,2.7,0,.2,0,.3.2.3.2,0,.7-.4,1.3-1.2.3-.4.7-.8,1-1.1l.5-.4.4-.4c.7-.7,1.3-1.3,2-1.7.5-.3.9-.5,1.3-.5.6,0,1,.6,1,1.7s0,.6,0,1.2c0,1.1-.2,2-.2,2.8v.2c0,.1,0,.2,0,.4,0,.2,0,.4,0,.5,0,.3,0,.7.1,1.2,0,.3,0,.5,0,.7,0,.3-.3.5-.9.7-.4.1-.9.2-1.3.2-1.1,0-1.8-.4-2.2-1.2-.2-.4-.3-.9-.3-1.5h0s0-.3,0-1.1h0ZM52.5,12.2c-.2,0-.3,0-.4,0-.6,0-1-.4-1-1.1s.2-1.5.7-2.5c.4-1,.9-1.7,1.4-2.2.4-.4.8-.5,1.2-.5.7,0,1.2.5,1.5,1.4.1.4.2,1,.2,1.6,0,1.4-.3,2.8-.9,4.1-.6,1.4-1.5,2.4-2.5,3.3-1,.8-2.2,1.2-3.3,1.2s-2.7-.7-3.4-2.1c-.3-.7-.5-1.5-.5-2.4,0-1.8.5-3.8,1.6-6.2,1.3-2.9,2.7-4.8,4.3-5.9C52.1.2,52.8,0,53.5,0s1.3.2,1.8.7c.4.5.7,1,.7,1.8s-.2,1.2-.7,1.8c-.4.5-.9,1-1.4,1.3-.6.4-1.2.6-1.8.6s-.4,0-.4-.2.1-.3.3-.6c.9-1.2,1.4-2.2,1.4-3.3s0-.6-.2-.6c-.2,0-.5.4-1,1.1-.3.5-.5,1-.7,1.5-1.3,3.4-1.9,6.2-1.9,8.4s0,1.1.2,1.7c.2.7.6,1.1,1,1.1,1,0,1.6-1,1.7-2.9h0ZM65.7,11.1h-.2c-.5.2-.9.3-1.2.3s-.5,0-.5-.2,0-.2.2-.4c.5-.7.7-1.3.7-1.9s0-.5-.1-.8c-.1-.4-.3-.6-.4-.6s-.3.1-.6.4c-1.6,1.7-2.4,3.3-2.4,4.8s0,.7.2,1c.2.4.4.6.7.6.5,0,1.7-.9,3.4-2.7l.3-.3h0s0,0,0,0ZM65,13.8h0c0,0,0,0,0,0-1.5,1.7-2.7,2.8-3.8,3.4-.5.3-1,.4-1.5.4-.9,0-1.7-.3-2.2-.9-.6-.6-.9-1.4-.9-2.3s.5-2.7,1.6-4.3c.8-1.2,1.8-2.2,3-3,1.4-.9,2.7-1.4,3.9-1.4s1.6.2,2.2.5c.8.4,1.3,1,1.3,1.7s-.2,1-.5,1.5c.4,0,.7,0,.8,0,.2.1.2.3.2.7,0,0,0,.2,0,.5,0,.6,0,1.4,0,2.2s0,1.1,0,1.4c0,.2,0,.4,0,.6,0,.4.2.7.3,1.1-.9.9-1.8,1.4-2.7,1.4s-1.8-1-1.8-3.1,0-.4,0-.6h0ZM82.6,15.3c0,.1-.3.4-.9.9-.6.5-1.3.9-1.9,1-.3,0-.6,0-.8,0h-.3c-.5,0-.9-.5-1.2-1.1-.2-.3-.3-.9-.3-1.8-.8,1.6-2,2.9-3.4,3.9-.7.4-1.3.6-2,.6s-1.2-.2-1.6-.6c-.4-.4-.7-1.1-.7-1.9s0-.8.2-1.1c.2-.7.7-1.1,1.3-1.1s.7.1.9.4c.5.6.9.8,1.3.8s.7-.1,1.1-.4c.6-.4,1.3-1.1,2.2-2.2-.2.2-.6.4-1.1.7-.6.2-1.1.4-1.6.4h-.1c-.8,0-1.3-.2-1.7-.8-.2-.4-.4-.9-.4-1.5,0-.9.4-1.9,1.2-3,.6-.8,1.3-1.5,2.1-2.1,1-.7,1.9-1,2.8-1s1.1.1,1.6.3c.6.3.9.7.9,1.2s-.1.7-.3,1.1c0,0,.2,0,.6-.2.3-.2.6-.2.8-.2s.3,0,.4,0c.3.2.4.5.4.8s0,.3,0,.7c0,.1-.1.6-.3,1.4-.1.3-.3.8-.5,1.6-.2.7-.3,1.2-.3,1.5,0,.6.2.9.5.9s.2,0,.5,0c.2,0,.4,0,.5,0,.1,0,.2,0,.3.2,0,0,0,.2,0,.3s0,0,0,.1h0ZM78,9.5c-.3.2-.6.2-.8.2-.3,0-.4,0-.4-.2s0-.2.1-.3c.3-.5.5-.9.5-1.4,0-.7-.1-1-.4-1s-.2,0-.4.3c-.5.5-.8,1.1-1.1,1.7-.2.6-.3,1-.3,1.4s0,.5.1.6c0,.2.3.3.5.3.3,0,.7-.1.9-.3.5-.4.9-.8,1.2-1.4h0ZM95.2,11l.7-.8c.6-.6,1.1-1.2,1.7-1.8.8-.7,1.5-1.1,2.2-1.1s1.1.2,1.3.6c.2.3.3.8.3,1.5s0,.8,0,1.4c0,.9-.1,1.6-.1,2.3s0,1.5.1,1.9c0,.1.1.5.3,1,0,.2,0,.3,0,.5s0,.2-.1.3c-.6.5-1.3.8-2,.8s-1.7-.6-2.1-1.8c-.2-.6-.3-1.2-.3-1.9s0-1,.1-1.6h0c-.3.3-.8.8-1.4,1.5-.9,1-1.6,1.9-2.3,2.8-.2.3-.5.6-.7.8-.3.3-.6.4-1,.4-.6,0-1-.2-1.3-.6-.3-.4-.4-.9-.4-1.4s.2-1.8.5-3.1c.3-1.2.7-2.5,1.2-3.8.7-1.9,1.6-2.8,2.7-2.8s1.2.5,1.2,1.6-.2,1.9-.5,3.4h0c0,0,0,0,0,0ZM104.4,15.9l-.2.4c-.2.4-.3.6-.4.7-.2.2-.4.4-.7.4-.7,0-1-.7-1-2.2s.1-1.5.4-2c.6-1.2,1.6-2.7,3.1-4.5,1.6-2,2.7-2.9,3.4-2.9s1.1.4,1.5,1.2c.2.4.4,1.1.6,2,.4,1.6.5,3.1.5,4.6,0,2.2-.3,3.5-1,3.9-.2.2-.5.2-.9.2-.8,0-1.4-.2-1.8-.7-.3-.3-.5-.9-.5-1.9,0-.6,0-1.3,0-2.3v-3.1h0c-.1.3-.3.6-.4.8-.3.5-.8,1.6-1.5,3.2-.1.3-.4,1-.9,1.9l-.2.5h0ZM121.8,11.1h-.2c-.5.2-.9.3-1.2.3s-.5,0-.5-.2,0-.2.2-.4c.4-.7.7-1.3.7-1.9s0-.5-.1-.8c-.1-.4-.3-.6-.4-.6s-.3.1-.6.4c-1.6,1.7-2.4,3.3-2.4,4.8s0,.7.2,1c.2.4.4.6.7.6.5,0,1.7-.9,3.4-2.7l.3-.3h0s0,0,0,0ZM121,13.8h0c0,0,0,0,0,0-1.4,1.7-2.7,2.8-3.8,3.4-.5.3-1,.4-1.4.4-.9,0-1.7-.3-2.2-.9s-.9-1.4-.9-2.3.5-2.7,1.6-4.3c.8-1.2,1.8-2.2,3-3,1.4-.9,2.7-1.4,3.9-1.4s1.6.2,2.2.5c.8.4,1.3,1,1.3,1.7s-.2,1-.5,1.5c.4,0,.7,0,.8,0,.2.1.2.3.2.7,0,0,0,.2,0,.5,0,.6,0,1.4,0,2.2s0,1.1,0,1.4c0,.2,0,.4,0,.6,0,.4.2.7.3,1.1-.9.9-1.8,1.4-2.7,1.4s-1.8-1-1.8-3.1,0-.4,0-.6h0ZM134.1,8.3c.2-.3.6-.6.9-.8.3-.2.7-.3,1-.3.6,0,1.1.2,1.3.6.2.3.3.8.3,1.5s0,.8-.1,1.4c0,.9-.1,1.6-.1,2.3s0,1.5.1,1.9c0,.1.1.5.3,1,0,.2,0,.3,0,.5s0,.2-.1.3c-.6.5-1.3.8-2,.8s-1.7-.6-2.1-1.8c0-.2-.2-.6-.3-1.3,0-.3,0-.6,0-.9s0-.3,0-.4c-1,.3-1.7.7-2.3,1.3-.2.2-.4.5-.6.9-.2.5-.5.8-.7,1.1-.3.3-.5.6-.7.8-.3.3-.6.4-1,.4-.6,0-1-.2-1.3-.6-.3-.4-.4-.9-.4-1.4s.2-1.8.5-3.1c.3-1.2.7-2.5,1.2-3.8.7-1.9,1.6-2.8,2.6-2.8s1.2.5,1.2,1.6-.2,1.9-.7,4.4c.5-.1,1.1-.3,1.7-.6.2-.2.4-.5.5-.8,0-.3.2-.6.3-.9,0-.3.2-.7.4-1.3h0ZM142.6,13.6c.4-.2.6-.5.8-.7.4-.5.7-1.1,1-1.8.2-.5.4-1,.4-1.5.1-.5.2-1.1.2-1.5s0-.7-.3-.7-.6.6-1.2,1.7c-.7,1.5-1.1,2.8-1.1,3.8s0,.4,0,.7h0ZM142.6,13.9c0,.5.4.7.9.7s1.4-.4,2.3-1.1c.6-.4.9-.6,1.1-.6s.4,0,.6.2c.2.1.4.3.4.4s-.1.3-.3.6c-1.4,1.4-2.9,2.4-4.6,2.9-.5.2-1,.2-1.4.2-1,0-1.8-.3-2.4-.8-.6-.6-.9-1.3-.9-2.3,0-1.6.6-3.3,1.8-5,.6-.9,1.4-1.7,2.3-2.3,1.1-.8,2.2-1.1,3.3-1.1s1.4.2,1.8.8c.4.5.6,1.1.6,1.9,0,1.4-.7,2.7-2,4.1-1.2,1.1-2.2,1.7-3,1.7s-.4,0-.5-.1h0ZM161.9,13l-3.3,3.4c-.7.7-1.3,1.1-1.9,1.1s-.9-.2-1.2-.6c-.3-.4-.5-.8-.5-1.3s.2-1.5.7-2.8c0-.2.2-.4.3-.7h0c-.7.7-1.5,1.6-2.3,2.5-.5.6-.9,1-1.2,1.3-.5.5-.9.9-1.3,1.2-.3.2-.6.3-.8.3-.6,0-1-.2-1.3-.7-.2-.4-.4-.9-.4-1.5,0-.9.4-2.3,1.1-4.3.7-1.8,1.2-3,1.6-3.5.5-.8,1.2-1.2,1.9-1.2s.7,0,1,.2c.3.2.5.5.5.8,0,.6-.3,1.6-.9,3.2-.1.4-.2.7-.4,1.1h0c.3-.3.8-.9,1.4-1.6,1.1-1.3,1.9-2.3,2.6-2.8.8-.7,1.4-1,2-1s1.1.3,1.4,1c.1.3.2.6.2,1s-.2,1.2-.7,2.6c0,.2-.2.6-.4,1.1h0s.3-.3.3-.3c0,0,.2-.2.3-.3l.3-.3c.5-.5,1-1,1.6-1.6.7-.7,1.1-1.2,1.4-1.3.3-.2.6-.3.9-.3,1,0,1.5.7,1.5,2s0,.9-.2,1.9c-.2,1.6-.3,2.7-.3,3.5s0,.9.1,1.5c.1.5.2,1.1.4,2,0,.3-.3.6-.7.8-.3.2-.7.2-1.1.2-.7,0-1.3-.3-1.9-.9-.5-.5-.8-1.1-.9-1.8,0-.4,0-.9,0-1.5s0-1.2.1-2.5h0c0,0-.2.2-.2.2h0ZM176.6,11.1h-.2c-.5.2-.9.3-1.2.3s-.5,0-.5-.2,0-.2.2-.4c.4-.7.7-1.3.7-1.9s0-.5-.1-.8c-.1-.4-.3-.6-.4-.6s-.3.1-.6.4c-1.6,1.7-2.4,3.3-2.4,4.8s0,.7.2,1c.2.4.4.6.7.6.5,0,1.7-.9,3.4-2.7l.3-.3h0s0,0,0,0ZM175.9,13.8h0c0,0,0,0,0,0-1.4,1.7-2.7,2.8-3.8,3.4-.5.3-1,.4-1.4.4-.9,0-1.6-.3-2.2-.9s-.9-1.4-.9-2.3.5-2.7,1.6-4.3c.8-1.2,1.8-2.2,3-3,1.4-.9,2.7-1.4,3.9-1.4s1.6.2,2.2.5c.8.4,1.3,1,1.3,1.7s-.2,1-.5,1.5c.4,0,.6,0,.8,0,.1.1.2.3.2.7,0,0,0,.2,0,.5,0,.6,0,1.4,0,2.2s0,1.1,0,1.4c0,.2,0,.4,0,.6,0,.4.2.7.3,1.1-.9.9-1.8,1.4-2.7,1.4s-1.9-1-1.9-3.1,0-.4,0-.6h0Z"/>
  <g>
    <path class="st1" d="M8.5,32.4c0,.7-.3,1.3-.8,1.8-.5.5-1.2.7-2,.7s-1.7-.3-2.2-.8c-.5-.5-.7-1-.7-1.8h1.1c0,.5.2.8.5,1.1s.7.4,1.3.4,1.1-.2,1.4-.5c.2-.2.3-.5.3-.9s-.1-.7-.3-1c-.3-.3-.7-.5-1.4-.5h-.7v-1h.7c.5,0,.8-.1,1.1-.4s.4-.6.4-1-.1-.7-.3-.9c-.2-.3-.6-.4-1.1-.4s-.8.1-1.1.3c-.3.2-.4.5-.5.9h-1.1c0-.7.4-1.3,1-1.7.5-.3,1-.5,1.7-.5s1.3.2,1.7.5c.6.4.8.9.8,1.7s-.1.8-.3,1.2c-.2.4-.5.6-.9.8,1,.3,1.4.9,1.4,2h0ZM18.2,30.6c0,1.2-.4,2.2-1.2,3.1s-1.8,1.2-3.1,1.2-2.2-.4-3-1.2-1.2-1.8-1.2-3.1.4-2.2,1.2-3.1,1.8-1.2,3.1-1.2,2.2.4,3.1,1.2,1.2,1.8,1.2,3.1ZM17.1,30.6c0-.9-.3-1.7-.9-2.3s-1.4-.9-2.3-.9-1.7.3-2.3.9c-.6.6-.9,1.4-.9,2.3s.3,1.7.9,2.3,1.3.9,2.3.9,1.7-.3,2.3-.9.9-1.4.9-2.3ZM28,30.6c0,1.2-.4,2.2-1.2,3.1s-1.8,1.2-3.1,1.2-2.2-.4-3-1.2-1.2-1.8-1.2-3.1.4-2.2,1.2-3.1,1.8-1.2,3.1-1.2,2.2.4,3.1,1.2,1.2,1.8,1.2,3.1ZM26.9,30.6c0-.9-.3-1.7-.9-2.3s-1.4-.9-2.3-.9-1.7.3-2.3.9c-.6.6-.9,1.4-.9,2.3s.3,1.7.9,2.3c.6.6,1.3.9,2.3.9s1.7-.3,2.3-.9c.6-.6.9-1.4.9-2.3ZM38.5,34.6h-1.1v-6.9l-2.9,6.9h-1l-2.9-6.9v6.9h-1.1v-8.2h1.7l2.7,6.7,2.7-6.7h1.7s0,8.2,0,8.2ZM48.7,34.6h-1v-1.5c-.4.6-1,1.1-1.5,1.4-.5.2-1.1.4-1.7.4-1.2,0-2.3-.4-3.1-1.2-.8-.8-1.3-1.8-1.3-3.1s.4-2,1.1-2.8c.8-.9,1.9-1.4,3.3-1.4s1.4.1,1.9.4c.5.3.9.7,1.3,1.2v-1.4h1.1v8.2h0ZM47.6,30.6c0-.9-.3-1.7-.9-2.4-.6-.6-1.4-1-2.3-1s-1.7.3-2.3.9c-.6.6-.9,1.4-.9,2.4s.3,1.7,1,2.3c.6.6,1.4.9,2.3.9s1.6-.3,2.3-.9.9-1.4.9-2.3h0ZM54.8,27.5h-3.1v7.2h-1.1v-8.2h4.3v1ZM64.2,34.6h-1v-1.5c-.4.6-1,1.1-1.5,1.4-.5.2-1.1.4-1.7.4-1.2,0-2.3-.4-3.1-1.2-.8-.8-1.3-1.8-1.3-3.1s.4-2,1.1-2.8c.8-.9,1.9-1.4,3.3-1.4s1.4.1,1.9.4c.5.3.9.7,1.3,1.2v-1.4h1.1v8.2h0ZM63.2,30.6c0-.9-.3-1.7-.9-2.4-.6-.6-1.4-1-2.3-1s-1.7.3-2.3.9c-.6.6-.9,1.4-.9,2.4s.3,1.7,1,2.3c.6.6,1.4.9,2.3.9s1.6-.3,2.3-.9.9-1.4.9-2.3h0ZM71.4,32.4c0,.7-.3,1.3-.8,1.8-.5.5-1.2.7-2,.7s-1.7-.3-2.2-.8c-.5-.5-.7-1-.7-1.8h1.1c0,.5.2.8.5,1.1s.7.4,1.3.4,1.1-.2,1.4-.5c.2-.2.3-.5.3-.9s-.1-.7-.3-1c-.3-.3-.7-.5-1.4-.5h-.7v-1h.7c.5,0,.8-.1,1.1-.4s.4-.6.4-1-.1-.7-.3-.9c-.2-.3-.6-.4-1.1-.4s-.8.1-1.1.3-.4.5-.5.9h-1.1c0-.7.4-1.3,1-1.7.5-.3,1-.5,1.7-.5s1.3.2,1.7.5c.6.4.8.9.8,1.7s-.1.8-.3,1.2c-.2.4-.5.6-.9.8,1,.3,1.4.9,1.4,2h0ZM80.1,34.6h-1.1v-6.6l-4.9,6.6h-1.1v-8.2h1.1v6.6l4.9-6.6h1.1v8.2ZM88.7,34.6h-1.1v-3.7h-4.6v3.7h-1.1v-8.2h1.1v3.5h4.6v-3.5h1.1v8.2ZM110.7,32.3c0,.7-.2,1.2-.7,1.7-.5.5-1.1.7-2,.7h-3v-8.2h2.9c.9,0,1.5.2,1.9.7.3.4.5.9.5,1.5s0,.7-.3,1c-.2.3-.5.5-.8.7.4.1.8.3,1,.7.3.4.4.8.4,1.2h0ZM109.3,28.6c0-.4-.1-.7-.4-.9s-.6-.3-1-.3h-1.8v2.5h1.8c.4,0,.8-.1,1-.4s.4-.6.4-.9h0ZM109.6,32.3c0-.4-.1-.8-.4-1-.3-.2-.7-.3-1.2-.3h-1.8v2.7h1.8c.6,0,1-.1,1.3-.5.2-.2.3-.5.3-.9h0ZM120.4,30.9h-7.3c0,.8.3,1.5.9,2,.6.6,1.3.8,2.2.8s1.2-.2,1.7-.5c.5-.3.9-.8,1.2-1.3h1.2c-.3.9-.8,1.6-1.6,2.1-.7.5-1.5.8-2.5.8s-2.2-.4-3-1.2-1.2-1.8-1.2-3.1.4-2.1,1.1-2.9c.8-.9,1.9-1.4,3.2-1.4s2.5.5,3.3,1.5c.6.9.9,1.9.9,3.1h0ZM119.2,29.9c-.1-.8-.5-1.5-1.1-1.9-.6-.5-1.2-.7-1.9-.7s-1.5.2-2,.7c-.6.5-.9,1.1-1.1,1.9h6.1,0ZM126.5,27.5h-2.1v7.2h-1.1v-7.2h-2.1v-1h5.3s0,1,0,1ZM135.9,34.6h-1v-1.5c-.4.6-1,1.1-1.5,1.4-.5.2-1.1.4-1.7.4-1.2,0-2.3-.4-3.1-1.2s-1.3-1.8-1.3-3.1.4-2,1.1-2.8c.8-.9,1.9-1.4,3.3-1.4s1.4.1,1.9.4c.5.3.9.7,1.3,1.2v-1.4h1.1v8.2h0ZM134.9,30.6c0-.9-.3-1.7-.9-2.4-.6-.6-1.4-1-2.3-1s-1.7.3-2.3.9c-.6.6-.9,1.4-.9,2.4s.3,1.7,1,2.3c.6.6,1.4.9,2.3.9s1.6-.3,2.3-.9.9-1.4.9-2.3h0ZM144.6,34.6h-1.1v-7.2h-4.6v7.2h-1.1v-8.2h6.8v8.2h0ZM151,27.5h-2.1v7.2h-1.1v-7.2h-2.1v-1h5.3v1ZM160.3,30.9h-7.3c0,.8.3,1.5.9,2,.6.6,1.3.8,2.2.8s1.2-.2,1.7-.5.9-.8,1.2-1.3h1.2c-.3.9-.8,1.6-1.6,2.1-.7.5-1.5.8-2.5.8s-2.2-.4-3-1.2c-.8-.8-1.2-1.8-1.2-3.1s.4-2.1,1.1-2.9c.8-.9,1.9-1.4,3.2-1.4s2.5.5,3.3,1.5c.6.9.9,1.9.9,3.1h0ZM159.1,29.9c-.1-.8-.5-1.5-1.1-1.9-.6-.5-1.2-.7-1.9-.7s-1.5.2-2,.7c-.6.5-.9,1.1-1.1,1.9h6.1,0ZM168.3,34.6h-1.4l-3.3-4.1,3.2-4h1.3l-3.1,3.9,3.3,4.2h0ZM162.9,34.6h-1.1v-8.2h1.1v8.2ZM177.6,34.6h-1v-1.5c-.4.6-1,1.1-1.5,1.4-.5.2-1.1.4-1.7.4-1.2,0-2.3-.4-3.1-1.2-.8-.8-1.3-1.8-1.3-3.1s.4-2,1.1-2.8c.8-.9,1.9-1.4,3.3-1.4s1.4.1,1.9.4c.5.3.9.7,1.3,1.2v-1.4h1.1v8.2h0ZM176.6,30.6c0-.9-.3-1.7-.9-2.4-.6-.6-1.4-1-2.3-1s-1.7.3-2.3.9c-.6.6-.9,1.4-.9,2.4s.3,1.7,1,2.3c.6.6,1.4.9,2.3.9s1.6-.3,2.3-.9c.6-.6.9-1.4.9-2.3h0Z"/>
    <polygon class="st2" points="96.3 24.7 97.1 24.7 97.1 35.6 96.3 35.6 96.3 24.7"/>
  </g>
</svg>